<?xml version="1.0" encoding="UTF-8"?><svg id="Layer_2" xmlns="http://www.w3.org/2000/svg" viewBox="0 0 75.95 23.2"><defs><style>.cls-1{fill:#fff;}</style></defs><g id="Layer_1-2"><path class="cls-1" d="M67.3,15.84c1.67,0,3.17-.33,4.48-.98,1.31-.66,2.33-1.57,3.07-2.75,.73-1.18,1.1-2.51,1.1-4s-.36-2.85-1.09-4.02c-.72-1.16-1.74-2.07-3.05-2.71-1.31-.64-2.82-.97-4.51-.97h-5.83s-.01,0-.02,0c0,0-.01,0-.02,0-.4,0-.76,.07-1.09,.2-.01,0-.02,0-.04,.01-.13,.05-.25,.12-.37,.19-.2,.12-.39,.25-.57,.43-.56,.55-.85,1.26-.85,2.12,0,0,0,0,0,0h0v1.93c-1.04-1.56-2.4-2.81-4.09-3.74-1.85-1.03-3.89-1.54-6.11-1.54s-4.25,.51-6.09,1.54c-.86,.48-1.64,1.04-2.33,1.68-.22,.2-.43,.41-.63,.63l-.04,.03h0c-.51,.56-.97,1.18-1.37,1.84-1.06,1.76-1.59,3.72-1.59,5.87,0,1.2-.26,2.27-.78,3.22-.52,.95-1.24,1.69-2.17,2.22-.93,.53-1.98,.8-3.15,.8-1.83,0-3.31-.57-4.43-1.71-1.12-1.14-1.68-2.65-1.68-4.53s.56-3.36,1.7-4.51c1.13-1.15,2.6-1.73,4.41-1.73,1.18,0,2.23,.27,3.15,.8,.93,.53,1.65,1.27,2.17,2.22,.06,.11,.11,.24,.16,.35,.28-1.23,.75-2.4,1.4-3.49,.43-.71,.93-1.38,1.48-1.99l.03-.03c-.69-.64-1.47-1.2-2.33-1.68-1.85-1.03-3.89-1.54-6.11-1.54s-4.25,.51-6.09,1.54c-1.84,1.03-3.3,2.43-4.36,4.19-1.06,1.76-1.59,3.72-1.59,5.87s.53,4.1,1.59,5.87c.1,.17,.21,.33,.32,.49-.05,0-.1-.01-.16-.01h-6.95V5.66h4.38c.77,0,1.41-.25,1.92-.75,.51-.5,.76-1.13,.76-1.9s-.25-1.37-.76-1.87c-.51-.5-1.15-.75-1.92-.75H2.68c-.77,0-1.41,.25-1.92,.75-.51,.5-.76,1.12-.76,1.87s.25,1.4,.76,1.9c.51,.5,1.15,.75,1.92,.75H7.05v14.59c0,.18,.02,.36,.05,.53,.09,.61,.35,1.13,.79,1.57,.55,.56,1.25,.85,2.09,.85,0,0,.01,0,.02,0,0,0,.01,0,.02,0h9.84c.77,0,1.4-.24,1.9-.73,.49-.48,.74-1.1,.74-1.85,.49,.38,1,.73,1.56,1.04,1.84,1.03,3.87,1.54,6.09,1.54s4.28-.51,6.12-1.54c1.15-.64,2.14-1.42,2.99-2.34,0,0,0,0,0,0h0c.52-.57,.98-1.18,1.39-1.85,1.07-1.76,1.61-3.72,1.61-5.87,0-1.85,.56-3.36,1.7-4.51,1.13-1.15,2.6-1.73,4.41-1.73,1.18,0,2.23,.27,3.15,.8,.93,.53,1.65,1.27,2.17,2.22,.52,.95,.78,2.02,.78,3.22s-.26,2.27-.78,3.22c-.52,.95-1.24,1.69-2.17,2.22-.93,.53-1.98,.8-3.15,.8-1.83,0-3.31-.57-4.43-1.71-.46-.47-.81-.99-1.08-1.58-.29,1.2-.75,2.34-1.4,3.41-.44,.72-.94,1.39-1.5,1.99l-.03,.03c.69,.64,1.46,1.2,2.32,1.67,1.84,1.03,3.87,1.54,6.09,1.54s4.28-.51,6.12-1.54c1.68-.94,3.03-2.18,4.07-3.73v2.32h0c0,.84,.28,1.54,.83,2.1,.55,.56,1.25,.85,2.09,.85,0,0,.01,0,.02,0,0,0,.01,0,.02,0h9.84c.77,0,1.4-.24,1.9-.73,.5-.49,.75-1.11,.75-1.88s-.25-1.4-.75-1.9c-.5-.5-1.13-.75-1.9-.75h-6.95v-2.1h2.95Zm-2.95-10.35h2.99c.81,0,1.46,.24,1.95,.71s.73,1.11,.73,1.9-.24,1.43-.73,1.92c-.49,.49-1.14,.73-1.95,.73h-2.99V5.5Z"/></g></svg>