<?xml version="1.0" encoding="UTF-8" standalone="no"?>
<!DOCTYPE svg PUBLIC "-//W3C//DTD SVG 1.1//EN" "http://www.w3.org/Graphics/SVG/1.1/DTD/svg11.dtd">
<svg width="100%" height="100%" viewBox="0 0 128 128" version="1.1" xmlns="http://www.w3.org/2000/svg" xmlns:xlink="http://www.w3.org/1999/xlink" xml:space="preserve" xmlns:serif="http://www.serif.com/" style="fill-rule:evenodd;clip-rule:evenodd;stroke-linejoin:round;stroke-miterlimit:2;">
    <g transform="matrix(2.88953,0,0,2.88953,-49.3064,25.1526)">
        <g id="Layer_1-2">
            <path d="M58.53,17.92C58.747,17.616 59.509,16.376 59.876,15.013C60.213,13.763 60.279,12.446 60.28,11.559C60.28,10.436 60.138,9.037 59.804,7.947C59.48,6.893 58.994,5.987 58.271,5.017C57.48,3.955 56.11,2.48 54.42,1.55C52.57,0.52 50.53,0.01 48.31,0.01C46.09,0.01 44.06,0.52 42.22,1.55C41.36,2.03 40.58,2.59 39.89,3.23C39.67,3.43 39.46,3.64 39.26,3.86L39.22,3.89C38.71,4.45 38.25,5.07 37.85,5.73C36.79,7.49 36.26,9.45 36.26,11.6C36.26,12.8 36,13.87 35.48,14.82C34.96,15.77 34.24,16.51 33.31,17.04C32.38,17.57 31.33,17.84 30.16,17.84C28.33,17.84 26.85,17.27 25.73,16.13C24.61,14.99 24.05,13.48 24.05,11.6C24.05,9.72 24.61,8.24 25.75,7.09C26.88,5.94 28.35,5.36 30.16,5.36C31.34,5.36 32.39,5.63 33.31,6.16C34.24,6.69 34.96,7.43 35.48,8.38C35.54,8.49 35.59,8.62 35.64,8.73C35.92,7.5 36.39,6.33 37.04,5.24C37.47,4.53 37.97,3.86 38.52,3.25L38.55,3.22C37.86,2.58 37.08,2.02 36.22,1.54C34.37,0.51 32.33,-0 30.11,-0C27.89,-0 25.86,0.51 24.02,1.54C22.18,2.57 20.72,3.97 19.66,5.73C18.6,7.49 18.07,9.45 18.07,11.6C18.07,13.75 18.6,15.7 19.66,17.47C19.76,17.64 19.87,17.8 19.98,17.96C19.93,17.96 21.056,19.5 22.5,20.62C22.99,21 23.5,21.35 24.06,21.66C25.9,22.69 27.93,23.2 30.15,23.2C32.37,23.2 34.43,22.69 36.27,21.66C37.42,21.02 38.41,20.24 39.26,19.32C39.78,18.75 40.24,18.14 40.65,17.47C41.72,15.71 42.26,13.75 42.26,11.6C42.26,9.75 42.82,8.24 43.96,7.09C45.09,5.94 46.56,5.36 48.37,5.36C49.55,5.36 50.6,5.63 51.52,6.16C52.45,6.69 53.17,7.43 53.69,8.38C54.21,9.33 54.47,10.4 54.47,11.6C54.47,12.8 54.21,13.87 53.69,14.82C53.17,15.77 52.45,16.51 51.52,17.04C50.59,17.57 49.54,17.84 48.37,17.84C46.54,17.84 45.06,17.27 43.94,16.13C43.48,15.66 43.13,15.14 42.86,14.55C42.57,15.75 42.11,16.89 41.46,17.96C41.02,18.68 40.52,19.35 39.96,19.95L39.93,19.98C40.62,20.62 41.39,21.18 42.25,21.65C44.09,22.68 46.12,23.19 48.34,23.19C50.56,23.19 52.62,22.68 54.46,21.65C56.14,20.71 57.728,19.044 58.53,17.92Z" style="fill-rule:nonzero;"/>
        </g>
    </g>
</svg>
